<svg width="110" height="100" viewBox="0 0 110 100" fill="none" xmlns="http://www.w3.org/2000/svg">
<g id="Frame" clip-path="url(#clip0_1536_1183)">
<path id="Vector" d="M84.9339 23.1977C92.6714 25.8922 100.273 28.7825 104.007 37.0167C97.0369 37.0769 90.0521 36.9414 83.0974 37.3178C81.2759 37.4232 78.1599 38.9586 77.9943 40.1779C76.9556 47.4036 76.5943 54.7346 76.0223 61.9753C86.5145 61.9753 95.5617 61.9753 103.796 61.9753C104.428 54.0873 105 46.952 105.557 39.8167C111.744 46.5154 109.29 54.6443 107.755 61.6441C103.058 83.0351 83.4738 98.8261 61.7817 99.6541C57.1453 99.8347 52.4486 98.5401 47.7821 97.9079C48.1734 97.2756 49.0616 96.2972 48.896 96.0714C42.3929 86.9038 35.7845 77.8115 28.2878 67.4548C21.7848 77.7664 16.5161 86.0909 11.2624 94.4305C7.12271 91.45 0.273395 91.0134 0.438983 83.8781C0.724998 71.7149 17.6451 39.7715 22.7181 35.3759C22.5374 42.2101 23.3202 48.5326 31.5243 50.3992C39.8188 52.2809 46.9842 49.481 48.625 43.8961C50.7626 36.6103 46.5627 30.3932 37.5156 27.4578C36.1006 27.0062 34.6555 26.6298 33.2254 26.2083C39.1113 18.23 47.9627 18.516 56.4829 17.8838C55.0378 21.1654 53.5927 24.4471 51.8164 28.4513C62.1731 27.8341 71.3407 27.4427 80.4631 26.5847C82.0437 26.4492 83.4436 24.3869 84.9339 23.1977ZM64.2957 44.423C66.1021 45.2509 67.2612 45.7778 68.4053 46.3197C68.7515 45.9886 69.0827 45.6423 69.4289 45.3112C67.8031 42.5413 66.1774 39.7564 64.0247 36.0834C60.6828 39.2747 58.1388 41.6833 55.6098 44.1069C56.3173 44.3026 57.0249 44.5133 57.7324 44.709C58.1087 46.666 59.4334 49.1799 58.6807 50.5046C55.1432 56.6916 51.0185 62.5473 47.1197 68.5236C46.3369 69.7128 45.5993 70.9472 44.8466 72.1514C55.7453 66.115 60.9538 56.2851 64.2957 44.423Z" fill="#CFA9B5"/>
<path id="Vector_2" d="M11.2471 94.4455C16.5158 86.1059 21.7695 77.7663 28.2725 67.4697C35.7691 77.8265 42.3776 86.9338 48.8807 96.0863C49.0463 96.3272 48.1581 97.2906 47.7667 97.9228C34.9111 98.6002 22.0555 99.2776 8.25146 100C9.5009 97.697 10.374 96.0713 11.2471 94.4455Z" fill="#171412"/>
<path id="Vector_3" d="M84.9339 23.1974C83.4436 24.3866 82.0436 26.4489 80.448 26.5994C71.3256 27.4424 62.158 27.8489 51.8013 28.4661C53.5776 24.4468 55.0227 21.1802 56.4678 17.8985C59.7796 12.1331 63.0763 6.38266 66.7493 0C73.1169 8.12886 79.0329 15.6706 84.9339 23.1974ZM60.7882 17.2512C59.5387 19.4641 58.2893 21.692 56.6786 24.5522C64.958 23.95 71.9729 23.4533 79.6953 22.8963C77.4072 20.0361 75.7212 17.9437 74.0352 15.8362C71.8374 12.7503 69.6396 9.66431 66.8999 5.85579C64.4913 10.3417 62.6397 13.804 60.7882 17.2512Z" fill="#171412"/>
<path id="Vector_4" d="M105.557 39.8312C104.985 46.9665 104.413 54.0868 103.796 61.9899C95.5618 61.9899 86.5147 61.9899 76.0225 61.9899C76.6095 54.7642 76.9558 47.4332 77.9945 40.1925C78.1751 38.9731 81.2761 37.4377 83.0976 37.3323C90.0523 36.9409 97.0371 37.0915 104.007 37.0312C104.519 37.9495 105.045 38.8828 105.557 39.8312ZM79.7708 58.8587C87.0717 58.8587 93.6651 58.8587 100.68 58.8587C100.68 52.6417 100.68 46.7859 100.68 40.0118C94.0715 40.4032 87.7491 40.7645 80.9901 41.1559C80.7041 44.2418 80.4331 46.6805 80.2675 49.1342C80.0417 52.2954 79.9364 55.4567 79.7708 58.8587Z" fill="#171412"/>
<path id="Vector_5" d="M33.2255 26.208C34.6556 26.6145 36.1007 26.9908 37.5157 27.4574C46.5629 30.3929 50.7628 36.6099 48.6252 43.8958C46.9843 49.4806 39.8189 52.2806 31.5245 50.3989C23.3354 48.5473 22.5376 42.2098 22.7182 35.3756C26.2257 32.3197 29.7181 29.2639 33.2255 26.208ZM35.9953 47.4334C42.5436 47.5839 45.3736 45.5667 45.4941 40.6744C45.6295 35.2852 40.8877 30.7843 34.6556 30.5585C29.5525 30.3778 26.6472 32.967 26.2407 38.025C25.7439 44.1668 29.0557 47.2678 35.9953 47.4334Z" fill="#171412"/>
<path id="Vector_6" d="M64.2957 44.4226C60.9539 56.2847 55.7454 66.1146 44.8467 72.1511C45.5994 70.9468 46.337 69.7124 47.1197 68.5232C51.0186 62.547 55.1432 56.6912 58.6808 50.5042C59.4335 49.1795 58.1088 46.6656 57.7324 44.7086C57.0249 44.5129 56.3174 44.3022 55.6099 44.1065C58.1539 41.6829 60.6829 39.2743 64.0248 36.083C66.1774 39.756 67.8032 42.5259 69.4289 45.3108C69.0827 45.6419 68.7515 45.9882 68.4053 46.3193C67.2613 45.7774 66.1021 45.2506 64.2957 44.4226Z" fill="#171412"/>
<path id="Vector_7" d="M74.0202 15.8359C75.7062 17.9434 77.3922 20.0358 79.6803 22.896C71.9579 23.453 64.943 23.9648 56.6636 24.5519C58.2743 21.6917 59.5237 19.4789 60.7732 17.251C65.1989 16.7843 69.6095 16.3026 74.0202 15.8359Z" fill="#CFA9B5"/>
<path id="Vector_8" d="M79.7705 58.8592C79.9361 55.4421 80.0565 52.2959 80.2522 49.1497C80.4178 46.696 80.6888 44.2574 80.9748 41.1714C87.7488 40.78 94.0713 40.4037 100.665 40.0273C100.665 46.7863 100.665 52.6572 100.665 58.8743C93.6498 58.8592 87.0564 58.8592 79.7705 58.8592Z" fill="#CFA9B5"/>
<path id="Vector_9" d="M35.9952 47.4336C29.0555 47.283 25.7438 44.167 26.2405 38.0252C26.647 32.9672 29.5674 30.378 34.6554 30.5587C40.8725 30.7845 45.6294 35.2854 45.4939 40.6746C45.3735 45.5519 42.5434 47.569 35.9952 47.4336Z" fill="#CFA9B5"/>
</g>
<defs>
<clipPath id="clip0_1536_1183">
<rect width="109.122" height="100" fill="white" transform="translate(0.438965)"/>
</clipPath>
</defs>
</svg>
