<svg width="130" height="100" viewBox="0 0 130 100" fill="none" xmlns="http://www.w3.org/2000/svg">
<g id="Frame" clip-path="url(#clip0_1536_1197)">
<path id="Vector" d="M14.8155 35.7566C14.8155 35.7566 -8.70049 76.7647 3.92684 85.3175C16.5542 93.8704 49.2377 99.9996 62.3743 99.9821C75.4934 99.9645 115.377 97.2424 127.32 61.942C139.262 26.6417 105.876 2.52863 75.5285 3.7053C45.1808 4.88198 14.8155 35.7566 14.8155 35.7566Z" fill="#A7B592"/>
<path id="Vector_2" d="M115.641 22.4977C84.0814 24.2364 52.5394 25.9751 20.9799 27.7313C18.609 26.7829 16.2205 25.8521 13.832 24.9038C13.9374 23.9378 14.0428 22.9895 14.1482 22.0235C32.5184 14.7527 50.8535 7.37654 69.3115 0.369165C71.4541 -0.438702 74.4924 0.263791 76.8633 1.01897C92.1074 5.95399 107.316 11.0295 122.473 16.228C124.422 16.8953 126.073 18.4233 129.533 20.601C123.509 21.4264 119.575 21.9533 115.641 22.4977ZM109.178 17.791C98.0786 13.418 85.9957 8.62347 73.8601 3.96945C72.6659 3.51283 70.9799 3.6182 69.7857 4.10995C55.7885 9.81771 41.844 15.6308 28.4088 21.2157C55.3845 20.0741 82.7467 18.915 109.178 17.791Z" fill="black"/>
<path id="Vector_3" d="M16.0449 71.9356C31.0432 71.5317 46.059 71.1453 61.0572 70.6887C81.3242 70.074 101.574 69.3891 121.841 68.7393C121.577 72.6205 121.314 76.5194 121.05 80.4007C120.418 79.7684 119.803 79.1537 119.171 78.5215C119.891 73.0947 116.73 72.3395 112.357 72.5679C81.5525 74.2187 50.7306 75.8169 20.5584 77.3799C19.2764 80.1021 18.2227 82.3325 17.1865 84.5629C16.8001 80.3655 16.4313 76.1506 16.0449 71.9356Z" fill="black"/>
<path id="Vector_4" d="M22.7184 31.3316C26.8807 30.5413 31.0605 29.751 36.8034 28.6621C37.2776 40.5167 37.5059 51.1595 38.2084 61.7496C38.6123 68.0545 34.3447 67.7032 30.3053 68.3355C25.423 69.0906 23.0872 67.0358 23.0696 62.2589C23.0345 56.1647 23.2453 50.0531 23.1399 43.9589C23.0872 40.7977 22.613 37.654 22.332 34.4928C22.4374 33.4391 22.5779 32.3853 22.7184 31.3316ZM29.0935 63.9624C33.6597 61.8198 34.9242 47.6997 31.7981 33.8254C27.548 36.8286 26.1255 52.6698 29.0935 63.9624Z" fill="black"/>
<path id="Vector_5" d="M27.9873 83.5619C35.3811 81.9988 42.7397 79.2416 50.151 79.0659C72.3147 78.5742 94.4959 79.1011 116.677 79.2064C117.503 79.2064 118.328 78.7674 119.153 78.5391C119.786 79.1713 120.4 79.786 121.033 80.4182C117.011 81.2085 112.989 82.0164 108.967 82.8067C86.8563 83.2458 64.7629 83.72 42.6519 84.1063C38.3667 84.1766 34.0639 83.878 29.7611 83.7375C29.1815 83.6848 28.5844 83.6146 27.9873 83.5619Z" fill="black"/>
<path id="Vector_6" d="M46.1114 65.0858C45.4265 53.5649 44.7416 42.0616 44.0566 30.8392C54.5414 26.6067 56.3678 27.3443 57.2284 37.1441C57.8782 44.6257 58.1241 52.3004 57.0879 59.6766C56.7015 62.469 52.2583 64.717 49.659 67.2109C48.4648 66.5084 47.2881 65.8059 46.1114 65.0858ZM49.6239 60.7479C50.502 60.8357 51.3801 60.906 52.2583 60.9938C52.2583 51.7384 52.2583 42.4831 52.2583 33.2277C51.3801 33.2277 50.502 33.2453 49.6239 33.2453C49.6239 42.4128 49.6239 51.5804 49.6239 60.7479Z" fill="black"/>
<path id="Vector_7" d="M66.8003 66.3156C66.168 56.0241 65.5006 46.5053 65.0616 36.9514C64.8333 32.0691 65.0089 27.3624 71.946 27.2394C78.7251 27.1165 78.1807 32.3676 78.5495 36.3543C79.129 42.4309 78.2509 48.7006 79.1817 54.6894C80.7799 64.858 75.4058 66.7547 66.8003 66.3156ZM70.0493 30.9802C70.0493 41.6405 70.0493 51.8618 70.0493 62.4519C77.2674 58.8517 77.2147 35.7396 70.0493 30.9802Z" fill="black"/>
<path id="Vector_8" d="M99.0092 61.5737C86.5224 65.7184 86.4697 65.7184 86.3292 54.619C86.2238 46.2945 86.3116 37.9524 86.3116 29.4873C89.4553 29.6805 92.2477 29.8561 96.0236 30.102C97.0422 40.7448 98.0433 51.2997 99.0092 61.5737ZM90.7374 60.3092C92.195 60.1336 93.6527 59.958 95.1104 59.7824C94.162 50.808 93.1961 41.8512 92.2477 32.8768C91.0886 32.9998 89.9119 33.1227 88.7528 33.2456C89.4202 42.2551 90.0875 51.2822 90.7374 60.3092Z" fill="black"/>
<path id="Vector_9" d="M105.209 61.9598C105.209 52.4234 104.928 42.8519 105.455 33.3332C105.56 31.4891 108.844 29.8031 110.671 28.0645C112.374 29.8558 115.412 31.5594 115.535 33.4385C116.045 41.2538 116.326 49.2095 115.289 56.9194C114.921 59.7118 110.583 61.9598 108.054 64.4536C107.105 63.6282 106.157 62.7852 105.209 61.9598ZM111.215 33.3332C110.688 33.3156 110.179 33.298 109.652 33.298C109.652 41.6577 109.652 50.035 109.652 58.3946C110.179 58.4122 110.688 58.4298 111.215 58.4473C111.215 50.0701 111.215 41.6928 111.215 33.3332Z" fill="black"/>
<path id="Vector_10" d="M109.178 17.7906C82.7466 18.9146 55.3845 20.0737 28.4087 21.2153C41.8614 15.6304 55.806 9.79975 69.7856 4.10955C70.9798 3.6178 72.6658 3.51243 73.86 3.96905C85.9956 8.62307 98.0785 13.4176 109.178 17.7906Z" fill="#A7B592"/>
</g>
<defs>
<clipPath id="clip0_1536_1197">
<rect width="129.593" height="100" fill="white" transform="translate(0.203613)"/>
</clipPath>
</defs>
</svg>
